<?xml version="1.0" encoding="UTF-8"?>
<svg xmlns="http://www.w3.org/2000/svg" width="24" height="16" viewBox="0 0 24 16" shape-rendering="crispEdges">
<rect x="8" y="0" width="8" height="1" fill="#ffb43c"/>
<rect x="5" y="1" width="14" height="1" fill="#ffb43c"/>
<rect x="3" y="2" width="5" height="1" fill="#ffb43c"/>
<rect x="8" y="2" width="8" height="1" fill="#fff0b4"/>
<rect x="16" y="2" width="5" height="1" fill="#ffb43c"/>
<rect x="2" y="3" width="4" height="1" fill="#ffb43c"/>
<rect x="6" y="3" width="12" height="1" fill="#fff0b4"/>
<rect x="18" y="3" width="4" height="1" fill="#ffb43c"/>
<rect x="1" y="4" width="3" height="1" fill="#ffb43c"/>
<rect x="4" y="4" width="4" height="1" fill="#fff0b4"/>
<rect x="16" y="4" width="4" height="1" fill="#fff0b4"/>
<rect x="20" y="4" width="3" height="1" fill="#ffb43c"/>
<rect x="1" y="5" width="2" height="1" fill="#ffb43c"/>
<rect x="3" y="5" width="3" height="1" fill="#fff0b4"/>
<rect x="18" y="5" width="2" height="1" fill="#fff0b4"/>
<rect x="20" y="5" width="3" height="1" fill="#ffb43c"/>
</svg>
